<svg xmlns="http://www.w3.org/2000/svg" viewBox="0 0 23.89 27"><defs><style>.cls-1{fill:none;stroke:#21232c;stroke-miterlimit:10;}</style></defs><title>ic_tab_shop</title><g id="Layer_2" data-name="Layer 2"><g id="Layer_1-2" data-name="Layer 1"><path class="cls-1" d="M16.6,26.5H7.29a3.27,3.27,0,0,1-3.15-2.39L.62,11.64A3.29,3.29,0,0,1,3.78,7.47H20.11a3.28,3.28,0,0,1,3.15,4.17L19.75,24.11A3.29,3.29,0,0,1,16.6,26.5Z"/><path class="cls-1" d="M6,7.47c0-3.85,2.05-7,5.9-7s5.91,3.12,5.91,7"/><path class="cls-1" d="M19.86,12.62a2,2,0,1,1-2-2A2,2,0,0,1,19.86,12.62Z"/></g></g></svg>